<svg xmlns="http://www.w3.org/2000/svg" width="512" height="512" viewBox="0 0 512 512"><rect width="512" height="512" rx="96" fill="#141008"/><g transform="translate(136,86) scale(2.0)"><defs><radialGradient id="lmpGlow" cx="50%" cy="50%" r="50%"><stop offset="0%" stop-color="#ffb95e" stop-opacity=".55"/><stop offset="100%" stop-color="#ffb95e" stop-opacity="0"/></radialGradient><linearGradient id="lmpFlame" x1="0" y1="1" x2="0" y2="0"><stop offset="0%" stop-color="#ff7a1f"/><stop offset="55%" stop-color="#ffb347"/><stop offset="100%" stop-color="#ffe9b0"/></linearGradient><linearGradient id="lmpBrass" x1="0" y1="0" x2="0" y2="1"><stop offset="0%" stop-color="#e3b860"/><stop offset="50%" stop-color="#a87b35"/><stop offset="100%" stop-color="#7a5523"/></linearGradient></defs><circle cx="60" cy="38" r="34" fill="url(#lmpGlow)"/><g class="lampflame"><path d="M60 16 C66 26 70 32 70 40 C70 48 65.5 53 60 53 C54.5 53 50 48 50 40 C50 32 54 26 60 16 Z" fill="url(#lmpFlame)"/><path d="M60 30 C63 35 64.5 38 64.5 42 C64.5 46.5 62.5 49 60 49 C57.5 49 55.5 46.5 55.5 42 C55.5 38 57 35 60 30 Z" fill="#fff3cf" opacity=".85"/></g><rect x="56" y="52" width="8" height="7" rx="2" fill="#8a6228"/><path d="M28 62 L92 62 C92 80 78 92 60 92 C42 92 28 80 28 62 Z" fill="url(#lmpBrass)"/><rect x="24" y="58" width="72" height="6" rx="3" fill="#caa14e"/><rect x="56" y="92" width="8" height="16" fill="url(#lmpBrass)"/><path d="M38 118 C38 110 47 108 60 108 C73 108 82 110 82 118 L82 122 L38 122 Z" fill="url(#lmpBrass)"/><rect x="32" y="122" width="56" height="6" rx="3" fill="#caa14e"/></g></svg>